# xmcd
#
# Track frame offsets: 
#        150
#        37495
#        72205
#        102655
#        137620
#
# Disc length: 2203 seconds
#
# Revision: 1
# Processed by: cddbd v1.4PL0 Copyright (c) Steve Scherf et al.
# Submitted via: ExactAudioCopy v0.90b4
#
DISCID=4b089905
DTITLE=Big John Patton - Got a Good Thing Goin'
DYEAR=1966
DGENRE=Jazz
TTITLE0=The Yodel
TTITLE1=Soul Woman
TTITLE2=Ain't That Peculiar
TTITLE3=The Shake
TTITLE4=Amanda
EXTD=YEAR: 1966
EXTT0=
EXTT1=
EXTT2=
EXTT3=
EXTT4=
PLAYORDER=
